<svg id="document_scanner_black_24dp" xmlns="http://www.w3.org/2000/svg" width="47" height="47" viewBox="0 0 47 47">
  <rect id="Rectangle_804" data-name="Rectangle 804" width="47" height="47" fill="none"/>
  <path id="Path_2090" data-name="Path 2090" d="M11.792,4.917H5.917v5.875H2V1h9.792Zm29.375,5.875V1H31.375V4.917H37.25v5.875ZM11.792,40.167H5.917V34.292H2v9.792h9.792ZM37.25,34.292v5.875H31.375v3.917h9.792V34.292Zm-5.875-23.5H11.792v23.5H31.375Zm3.917,23.5a3.928,3.928,0,0,1-3.917,3.917H11.792a3.928,3.928,0,0,1-3.917-3.917v-23.5a3.928,3.928,0,0,1,3.917-3.917H31.375a3.928,3.928,0,0,1,3.917,3.917ZM27.458,14.708H15.708v3.917h11.75Zm0,5.875H15.708V24.5h11.75Zm0,5.875H15.708v3.917h11.75Z" transform="translate(1.917 0.958)" fill="#2e7d9c"/>
</svg>
